<svg width="40" height="40" viewBox="0 0 40 40" fill="none" xmlns="http://www.w3.org/2000/svg">
<g id="Icon-receipt">
<path id="Vector" d="M9.99999 34.9999C9.05999 34.9999 8.26943 34.6793 7.62832 34.0382C6.98721 33.3971 6.66666 32.6116 6.66666 31.6816V28.3332H11.6667V5.64156L13.7833 7.11489L15.9617 5.63989L18.1417 7.11489L20.32 5.63989L22.5 7.11489L24.68 5.64156L26.86 7.11489L29.0383 5.64156L31.2183 7.11489L33.3333 5.63989V31.6666C33.3333 32.6066 33.0128 33.3971 32.3717 34.0382C31.7305 34.6793 30.94 34.9999 30 34.9999H9.99999ZM30 33.3332C30.4722 33.3332 30.8683 33.1732 31.1883 32.8532C31.5083 32.5332 31.6678 32.1377 31.6667 31.6666V8.33323H13.3333V28.3332H28.3333V31.6666C28.3333 32.1388 28.4933 32.5349 28.8133 32.8549C29.1333 33.1749 29.5289 33.3343 30 33.3332ZM15.6417 14.1666V12.4999H24.5517V14.1666H15.6417ZM15.6417 19.1666V17.4999H24.5517V19.1666H15.6417ZM28.1417 14.6166C27.7972 14.6166 27.4972 14.4888 27.2417 14.2332C26.9861 13.9777 26.8583 13.6777 26.8583 13.3332C26.8583 12.9888 26.9861 12.6888 27.2417 12.4332C27.4972 12.1777 27.7972 12.0499 28.1417 12.0499C28.4861 12.0499 28.7855 12.1777 29.04 12.4332C29.2944 12.6888 29.4222 12.9888 29.4233 13.3332C29.4244 13.6777 29.2967 13.9777 29.04 14.2332C28.7833 14.4888 28.485 14.6166 28.1417 14.6166ZM28.14 19.6166C27.7967 19.6166 27.4972 19.4888 27.2417 19.2332C26.9861 18.9777 26.8583 18.6777 26.8583 18.3332C26.8583 17.9888 26.9861 17.6888 27.2417 17.4332C27.4972 17.1777 27.7972 17.0499 28.1417 17.0499C28.4861 17.0499 28.7855 17.1777 29.04 17.4332C29.2944 17.6888 29.4222 17.9888 29.4233 18.3332C29.4244 18.6777 29.2967 18.9777 29.04 19.2332C28.7833 19.4888 28.4833 19.6166 28.14 19.6166ZM9.99999 33.3332H26.6667V29.9999H8.33332V31.6666C8.33332 32.1388 8.49332 32.5349 8.81332 32.8549C9.13332 33.1749 9.52888 33.3343 9.99999 33.3332Z" fill="black"/>
</g>
</svg>
