<svg width="40" height="40" viewBox="0 0 40 40" fill="none" xmlns="http://www.w3.org/2000/svg">
<g id="Icon-calendar">
<path id="Vector" d="M16.25 16.3333H18.125V18.2222H16.25V16.3333ZM21.875 27.6667H23.75V29.5556H21.875V27.6667ZM27.5 16.3333H29.375V18.2222H27.5V16.3333ZM21.875 16.3333H23.75V18.2222H21.875V16.3333ZM16.25 20.1111H18.125V22H16.25V20.1111ZM10.625 20.1111H12.5V22H10.625V20.1111ZM27.5 20.1111H29.375V22H27.5V20.1111ZM21.875 20.1111H23.75V22H21.875V20.1111ZM16.25 23.8889H18.125V25.7778H16.25V23.8889ZM10.625 23.8889H12.5V25.7778H10.625V23.8889ZM27.5 23.8889H29.375V25.7778H27.5V23.8889ZM21.875 23.8889H23.75V25.7778H21.875V23.8889ZM16.25 27.6667H18.125V29.5556H16.25V27.6667ZM10.625 27.6667H12.5V29.5556H10.625V27.6667ZM35 6.88889V33.3333H5V6.88889H10.625V5H12.5V6.88889H27.5V5H29.375V6.88889H35ZM6.875 8.77778V12.5556H33.125V8.77778H29.375V10.6667H27.5V8.77778H12.5V10.6667H10.625V8.77778H6.875ZM33.125 31.4444V14.4444H6.875V31.4444H33.125Z" fill="black"/>
</g>
</svg>
