<svg width="40" height="40" viewBox="0 0 40 40" fill="none" xmlns="http://www.w3.org/2000/svg">
<g id="Icon-user">
<path id="Vector" d="M27.9924 35H12.0076C11.0332 35 10.0986 34.6024 9.40951 33.8947C8.72044 33.187 8.33333 32.2271 8.33333 31.2262V29.9779C8.33333 23.9866 13.567 19.1094 20 19.1094C26.433 19.1094 31.6667 23.9836 31.6667 29.9779V31.2262C31.6667 32.2271 31.2795 33.187 30.5905 33.8947C29.9014 34.6024 28.9668 35 27.9924 35ZM20 20.6219C14.3768 20.6219 9.80305 24.8184 9.80305 29.9809V31.2292C9.80305 31.8298 10.0353 32.4057 10.4488 32.8303C10.8622 33.255 11.4229 33.4935 12.0076 33.4935H27.9924C28.577 33.4935 29.1378 33.255 29.5512 32.8303C29.9647 32.4057 30.1969 31.8298 30.1969 31.2292V29.9779C30.1969 24.8184 25.6232 20.6219 20 20.6219ZM20 16.8466C18.8593 16.8469 17.7441 16.4998 16.7955 15.8491C15.8469 15.1984 15.1075 14.2734 14.6708 13.1911C14.234 12.1088 14.1196 10.9178 14.342 9.76866C14.5643 8.61955 15.1135 7.56398 15.92 6.73544C16.7265 5.90689 17.7541 5.3426 18.8729 5.11393C19.9916 4.88525 21.1513 5.00247 22.2052 5.45074C23.2591 5.89902 24.1599 6.65823 24.7937 7.63234C25.4274 8.60646 25.7657 9.75173 25.7657 10.9233C25.7646 12.4937 25.1568 13.9993 24.0758 15.1099C22.9948 16.2204 21.5289 16.845 20 16.8466ZM20 6.51102C19.1499 6.51072 18.3188 6.76937 17.6119 7.25425C16.905 7.73913 16.3539 8.42846 16.0285 9.23504C15.703 10.0416 15.6178 10.9292 15.7836 11.7855C15.9493 12.6419 16.3587 13.4285 16.9598 14.0459C17.5609 14.6632 18.3267 15.0836 19.1605 15.2539C19.9943 15.4242 20.8585 15.3366 21.6438 15.0024C22.4291 14.6681 23.1003 14.1021 23.5724 13.3761C24.0445 12.65 24.2963 11.7964 24.296 10.9233C24.2948 9.75347 23.8418 8.63188 23.0364 7.80468C22.231 6.97747 21.139 6.51222 20 6.51102Z" fill="black"/>
</g>
</svg>
