<svg width="40" height="40" viewBox="0 0 40 40" fill="none" xmlns="http://www.w3.org/2000/svg">
<g id="Icon-money">
<g id="Group">
<path id="Vector" fill-rule="evenodd" clip-rule="evenodd" d="M23.9766 20.5558C23.7469 19.9058 23.3212 19.343 22.7583 18.9449C22.1953 18.5469 21.5228 18.3332 20.8333 18.3333V17.5H19.1666V18.3333C18.2826 18.3333 17.4347 18.6845 16.8096 19.3096C16.1845 19.9348 15.8333 20.7826 15.8333 21.6667C15.8333 22.5507 16.1845 23.3986 16.8096 24.0237C17.4347 24.6488 18.2826 25 19.1666 25V28.3333C18.4416 28.3333 17.8241 27.8708 17.5941 27.2225C17.56 27.1164 17.505 27.0183 17.4323 26.9339C17.3595 26.8494 17.2706 26.7804 17.1708 26.731C17.0709 26.6815 16.9622 26.6526 16.851 26.6459C16.7397 26.6392 16.6283 26.6549 16.5232 26.692C16.4182 26.7291 16.3216 26.7869 16.2393 26.862C16.157 26.9371 16.0905 27.0279 16.0439 27.1291C15.9973 27.2303 15.9715 27.3399 15.9679 27.4512C15.9644 27.5626 15.9832 27.6735 16.0233 27.7775C16.2531 28.4275 16.6788 28.9904 17.2417 29.3884C17.8047 29.7864 18.4772 30.0001 19.1666 30V30.8333H20.8333V30C21.7174 30 22.5652 29.6488 23.1903 29.0237C23.8155 28.3986 24.1666 27.5507 24.1666 26.6667C24.1666 25.7826 23.8155 24.9348 23.1903 24.3096C22.5652 23.6845 21.7174 23.3333 20.8333 23.3333V20C21.178 19.9999 21.5142 20.1067 21.7957 20.3056C22.0772 20.5046 22.29 20.7859 22.405 21.1108C22.4786 21.3192 22.632 21.4899 22.8314 21.5852C22.9301 21.6324 23.0372 21.6597 23.1465 21.6655C23.2558 21.6714 23.3651 21.6556 23.4683 21.6192C23.5715 21.5827 23.6665 21.5263 23.7479 21.4532C23.8293 21.38 23.8955 21.2915 23.9427 21.1928C23.9899 21.094 24.0172 20.987 24.023 20.8777C24.0288 20.7684 24.0131 20.659 23.9766 20.5558ZM19.1666 20C18.7246 20 18.3007 20.1756 17.9881 20.4882C17.6756 20.8007 17.5 21.2246 17.5 21.6667C17.5 22.1087 17.6756 22.5326 17.9881 22.8452C18.3007 23.1577 18.7246 23.3333 19.1666 23.3333V20ZM20.8333 28.3333C21.2753 28.3333 21.6993 28.1577 22.0118 27.8452C22.3244 27.5326 22.5 27.1087 22.5 26.6667C22.5 26.2246 22.3244 25.8007 22.0118 25.4882C21.6993 25.1756 21.2753 25 20.8333 25V28.3333Z" fill="black"/>
<path id="Vector_2" fill-rule="evenodd" clip-rule="evenodd" d="M10.9608 7.18417C13.0058 6.18333 16.3608 5 20.0325 5C23.6275 5 26.8942 6.13417 28.9283 7.12167L29.0433 7.1775C29.6567 7.48083 30.1517 7.7675 30.5 8L27.4217 12.5C34.5183 19.755 40 34.9975 20.0325 34.9975C0.0649939 34.9975 5.39916 20.0317 12.5575 12.5L9.49916 8C9.73499 7.84583 10.0342 7.66667 10.3908 7.47667C10.5675 7.38167 10.7575 7.28361 10.9608 7.18417ZM25.4433 12.4408L27.9075 8.83833C25.6158 9.00333 22.8892 9.54167 20.2642 10.3017C18.3892 10.8433 16.3058 10.7608 14.3767 10.405C13.8905 10.315 13.4077 10.2077 12.9292 10.0833L14.5292 12.4392C17.9583 13.66 22.0133 13.66 25.4433 12.4408ZM13.5667 13.8583C17.5792 15.4083 22.4017 15.4083 26.4142 13.8567C28.0886 15.6226 29.4897 17.6289 30.5708 19.8092C31.6975 22.1075 32.3108 24.405 32.2108 26.385C32.1142 28.2958 31.3625 29.9283 29.6458 31.1417C27.8567 32.4058 24.8475 33.3308 20.0317 33.3308C15.2108 33.3308 12.1875 32.4217 10.3817 31.1717C8.65249 29.9742 7.89333 28.3633 7.78583 26.4783C7.67333 24.52 8.27333 22.2342 9.39583 19.92C10.4667 17.7133 11.9608 15.5892 13.5667 13.8583ZM12.6083 8.26333C13.275 8.46167 13.9717 8.63417 14.6783 8.765C16.47 9.095 18.2667 9.14333 19.8 8.69917C21.5868 8.17842 23.4042 7.76902 25.2417 7.47333C23.7083 7.01167 21.915 6.66667 20.0317 6.66667C17.1608 6.66667 14.4833 7.4675 12.6083 8.26333Z" fill="black"/>
</g>
</g>
</svg>
